PathFileType  4	(X/Y/Z) C:\Users\antoi\Documents\MyRepositories\mobilecap\ResultsAnalysis
DataRate	CameraRate	NumFrames	NumMarkers	Units	OrigDataRate	OrigDataStartFrame	OrigNumFrames
100.0	100.0	6	51	mm	100.0	50	133
Frame#	Time	r_knee			r_shank_antsup			r_ankle			r_calc			r_5meta			r_toe			L_knee			L_shank_antsup			L_ankle			L_calc			L_5meta			L_toe			r_sh2			r_sh3			r_sh4			L_sh2			L_sh3			r_thigh1			r_thigh2			r_thigh3			r_thigh4			r_thigh5			L_thigh1			L_thigh2			L_thigh3			L_thigh4			r.ASIS			r.PSIS			L.ASIS			L.PSIS			C7			R_Shoulder			L_Shoulder			R_Sternum			L_Sternum			R_humerus			R_elbow_med			R_elbow_lat			R_forearm			R_wrist_radius			R_wrist_ulna			L_humerus			L_elbow_med			L_elbow_lat			L_forearm			L_wrist_radius			L_wrist_ulna			R_HJC			L_HJC			R_HJC_reg			L_HJC_reg			
		X1	Y1	Z1	X2	Y2	Z2	X3	Y3	Z3	X4	Y4	Z4	X5	Y5	Z5	X6	Y6	Z6	X7	Y7	Z7	X8	Y8	Z8	X9	Y9	Z9	X10	Y10	Z10	X11	Y11	Z11	X12	Y12	Z12	X13	Y13	Z13	X14	Y14	Z14	X15	Y15	Z15	X16	Y16	Z16	X17	Y17	Z17	X18	Y18	Z18	X19	Y19	Z19	X20	Y20	Z20	X21	Y21	Z21	X22	Y22	Z22	X23	Y23	Z23	X24	Y24	Z24	X25	Y25	Z25	X26	Y26	Z26	X27	Y27	Z27	X28	Y28	Z28	X29	Y29	Z29	X30	Y30	Z30	X31	Y31	Z31	X32	Y32	Z32	X33	Y33	Z33	X34	Y34	Z34	X35	Y35	Z35	X36	Y36	Z36	X37	Y37	Z37	X38	Y38	Z38	X39	Y39	Z39	X40	Y40	Z40	X41	Y41	Z41	X42	Y42	Z42	X43	Y43	Z43	X44	Y44	Z44	X45	Y45	Z45	X46	Y46	Z46	X47	Y47	Z47	X48	Y48	Z48	X49	Y49	Z49	X50	Y50	Z50	X51	Y51	Z51	

50	0.49000000	433.34637	490.87938	-14.39565	450.58814	414.53536	-42.68077	294.60479	104.98739	-49.25753	215.42515	78.07613	-67.30712	397.46779	43.11070	-41.08680	433.15152	66.17399	-108.53415	696.59695	509.16717	-293.96261	765.61445	442.30143	-296.15400	828.47578	127.03183	-298.24622	777.44469	60.44271	-262.89795	957.41828	109.08410	-313.06436	976.69382	150.33211	-255.08947	403.93495	308.95638	-20.09074	386.29503	442.19004	3.53564	340.60787	339.42520	4.65868	678.57249	419.90400	-311.31676	723.00650	305.21483	-324.44124	577.83921	781.26458	21.82912	543.94883	674.18143	6.38891	488.14619	664.89709	38.85020	471.01362	806.53151	55.66339	438.80135	694.95294	34.23748	621.11073	763.05224	-335.24404	679.04570	639.91986	-313.14695	518.61997	719.37193	-297.29696	583.90587	593.41699	-289.98101	612.91328	959.90305	-8.38858	422.59809	998.00737	-92.08556	620.12010	950.47721	-259.00855	415.58593	997.37873	-192.66515	431.07258	1414.00007	-140.11305	551.12152	1373.89757	24.05537	485.06820	1376.04641	-325.13876	571.21758	1372.86856	-134.57476	570.88833	1373.59122	-178.94725	589.50767	1246.75622	84.61458	555.20449	1025.28512	75.43683	596.54634	1051.23972	130.35504	704.50358	961.57661	99.46925	782.46438	854.58808	75.41101	772.97662	840.21531	107.38275	482.22373	1265.75368	-393.11474	371.33857	1053.27083	-368.32118	412.92761	1068.26010	-433.56738	455.86182	958.16070	-415.60537	453.32743	799.42820	-417.77727	448.32901	803.29601	-452.01238	535.67778	880.00230	-33.03614	539.81715	876.43260	-239.42921	548.09981	883.44961	-38.16239	536.58217	882.41702	-203.35117	
51	0.50000000	441.25550	489.99922	-15.12514	457.48087	413.07870	-43.24915	295.88957	106.22648	-49.02182	216.34661	80.15822	-67.13873	397.71257	42.91002	-40.99582	433.81165	65.82609	-108.29499	708.20657	507.30101	-294.72668	776.90361	440.35260	-296.76865	842.32803	125.50472	-296.85843	792.44144	58.41655	-260.80912	971.68826	108.74609	-311.41190	990.32007	151.00754	-253.96840	408.89682	308.36280	-20.30907	393.73847	441.99111	2.88720	346.23148	340.10901	4.35487	689.96200	417.21946	-311.62191	735.30423	302.81381	-324.11302	588.15151	779.26230	21.27616	553.53694	672.37875	5.92196	497.44251	663.63757	38.09455	481.04683	805.35305	54.94234	448.23184	694.07096	33.13229	634.35222	761.77575	-336.46718	691.55979	638.40562	-313.76755	531.35903	718.38744	-299.47591	596.20401	592.18348	-291.73077	624.47265	957.86803	-8.79661	434.57411	996.04817	-94.10575	633.04154	948.20100	-259.50875	428.20383	995.64602	-194.72867	443.01806	1412.17698	-141.62008	563.10645	1372.32558	22.71981	497.33999	1374.09704	-326.57912	583.25304	1371.17922	-135.86287	583.03742	1371.92987	-180.23670	602.21110	1245.28611	83.03362	568.74972	1023.61289	73.68309	610.20091	1049.77738	128.55802	718.78422	961.22248	96.69474	797.75462	855.22774	71.73759	788.58899	840.64901	103.63019	493.85693	1263.77580	-394.37102	381.87447	1052.09580	-368.76181	423.14835	1066.76926	-434.24458	464.96047	956.21637	-416.91406	460.38245	797.43010	-419.52513	455.29465	801.49033	-453.74627	547.08278	878.05237	-34.09131	552.61556	874.32059	-240.45344	559.75769	880.99136	-39.17065	549.28813	880.33122	-204.52564	
52	0.51000000	449.77994	488.98635	-16.03091	464.96422	411.48829	-43.98076	297.37061	107.71233	-48.72333	217.44384	82.68501	-66.90634	398.00989	42.70748	-40.90031	434.57302	65.43713	-108.05654	720.52384	505.69183	-295.08665	787.99812	437.87893	-297.19809	852.63537	122.98882	-295.24489	803.13006	56.36692	-258.49003	982.16283	106.08694	-309.62552	1000.72080	149.22717	-252.75304	414.40782	307.80634	-20.63759	401.88761	441.73682	2.09358	352.37969	340.87373	3.93200	700.87975	414.94983	-311.34285	745.76150	300.38823	-323.25267	598.80633	777.31815	20.49498	563.60720	670.60230	5.23627	507.28602	662.30219	37.13967	491.46085	804.06280	54.08440	458.20160	693.02307	31.86847	648.26803	760.85390	-337.36957	704.96267	637.38452	-314.03785	544.90951	717.47455	-301.86331	609.32971	591.18909	-293.36347	636.22854	955.81577	-9.30722	446.74467	994.10270	-96.08802	645.95654	946.11329	-260.12764	440.88736	994.05216	-196.73514	455.06604	1410.47700	-143.17005	575.23105	1370.89425	21.30015	509.66110	1372.24301	-328.08463	595.38014	1369.62736	-137.26588	595.25627	1370.38377	-181.63652	614.94029	1243.92839	81.38716	582.37388	1022.08440	71.77737	623.70089	1048.40699	126.66804	732.81575	960.84615	93.93726	812.64553	855.73310	68.18608	803.81471	841.02997	99.97120	505.63545	1261.87697	-395.68160	392.61615	1050.97062	-369.37490	433.66569	1065.32901	-435.02651	474.40916	954.38181	-418.24074	467.92445	795.56378	-421.26812	462.77558	799.80998	-455.49041	558.68215	876.09603	-35.27869	565.45600	872.37656	-241.60726	571.66420	878.47465	-40.29423	562.03155	878.39322	-205.80151	
53	0.52000000	458.91580	487.85976	-17.10337	473.04030	409.78260	-44.86097	299.08732	109.49936	-48.37767	218.75599	85.74183	-66.63893	398.36494	42.51600	-40.80626	435.46990	64.99465	-107.82369	733.34262	504.26729	-295.03340	798.95160	434.98914	-297.33990	860.02607	119.72657	-293.50711	810.14680	54.51925	-256.22892	989.49279	101.57405	-307.69922	1008.47676	145.27578	-251.28766	420.45719	307.30928	-21.06804	410.73641	441.46262	1.14982	359.04878	341.75112	3.37091	711.44151	413.05772	-310.56430	754.73263	297.96607	-321.95768	609.82073	775.47018	19.50128	574.14356	668.89508	4.33424	517.65355	660.92680	35.98336	502.30208	802.71585	53.01915	468.69790	691.84760	30.42148	662.60214	760.15171	-337.98419	718.95441	636.66602	-314.06474	559.03116	716.59197	-304.27619	623.02875	590.35463	-294.75644	648.18006	953.76751	-9.95576	459.13559	992.22924	-98.01190	658.93782	944.31126	-260.89507	453.68281	992.62163	-198.66262	467.20870	1408.91982	-144.75302	587.49876	1369.61607	19.79314	522.03411	1370.51876	-329.64776	607.61217	1368.22624	-138.76893	607.54748	1368.96658	-183.13263	627.68832	1242.69757	79.68140	596.01461	1020.71901	69.73302	637.01158	1047.13312	124.69264	746.59616	960.45285	91.21586	827.13685	856.10404	64.77199	818.61415	841.31370	96.43626	517.54088	1260.08653	-397.04196	403.57451	1049.89855	-370.12141	444.47291	1063.95976	-435.89203	484.21703	952.67727	-419.59458	475.98758	793.84312	-423.02334	470.79332	798.26990	-457.25621	570.52117	874.15720	-36.62852	578.38930	870.68076	-242.92310	583.81354	876.01832	-41.55547	574.83970	876.66648	-207.19974	
54	0.53000000	468.68027	486.64319	-18.32315	481.71289	407.98327	-45.85475	301.08503	111.63655	-48.00091	220.33233	89.40743	-66.37420	398.78145	42.35082	-40.72310	436.53646	64.48256	-107.59712	746.38235	502.96903	-294.61415	809.80823	431.87032	-297.11307	865.38880	116.07716	-291.72377	814.41387	53.17829	-254.22670	994.52172	95.81031	-305.60359	1014.32518	139.61384	-249.44410	427.01693	306.88454	-21.57597	420.26400	441.21215	0.05981	366.23730	342.77477	2.66419	721.79477	411.49067	-309.45303	762.74393	295.62592	-320.38856	621.19395	773.75076	18.34367	585.14165	667.29276	3.24004	528.51071	659.55013	34.63967	513.57974	801.37094	51.69665	479.68639	690.59184	28.76978	677.05954	759.52732	-338.41744	733.16482	636.04338	-313.96243	573.40134	715.73727	-306.53156	636.96444	589.60893	-295.82327	660.34026	951.77220	-10.76116	471.75658	990.49282	-99.87109	672.07191	942.86761	-261.81310	466.63955	991.37319	-200.50859	479.43377	1407.51437	-146.37328	599.89705	1368.49839	18.19566	534.45902	1368.95246	-331.26772	619.95312	1366.98544	-140.35406	619.91606	1367.69632	-184.71222	640.44516	1241.60405	77.91918	609.57828	1019.52878	67.57237	650.11644	1045.96384	122.64109	760.13038	960.04394	88.54900	841.24914	856.34393	61.51152	832.95542	841.45667	93.05558	529.55791	1258.43395	-398.45370	414.76385	1048.87852	-370.96115	455.55713	1062.68337	-436.82343	494.38471	951.11872	-420.98415	484.59814	792.28302	-424.80501	479.36026	796.88259	-459.05046	582.64065	872.28330	-38.14626	591.47999	869.29348	-244.40748	596.19808	873.75076	-42.96229	587.77033	875.20332	-208.72256	
55	0.54000000	479.12478	485.36407	-19.65861	490.99465	406.11496	-46.90120	303.41768	114.16271	-47.60196	222.23490	93.75303	-66.14662	399.26673	42.22836	-40.66263	437.79494	63.87992	-107.37627	759.32930	501.75634	-293.92388	820.61690	428.74864	-296.48172	869.68709	112.41332	-289.95452	816.95463	52.60065	-252.57681	998.13692	89.37034	-303.31429	1019.02771	132.75679	-247.17066	434.06427	306.54954	-22.11626	430.44561	441.03350	-1.15705	373.95405	343.98101	1.82443	732.10596	410.19565	-308.21410	770.39231	293.47036	-318.73281	632.90978	772.18803	17.09295	596.61554	665.82159	1.99905	539.82495	658.20977	33.13307	525.25693	800.08034	50.09527	491.12746	689.30292	26.89848	691.37434	758.86681	-338.79785	747.22077	635.34055	-313.81751	587.68116	714.95545	-308.48800	650.76422	588.90761	-296.53825	672.73810	949.90651	-11.72114	484.60455	988.95539	-101.67571	685.42960	941.81229	-262.85867	479.79842	990.32553	-202.29096	491.73039	1406.26476	-148.04675	612.39675	1367.54759	16.50849	546.93564	1367.56560	-332.94954	632.39580	1365.91710	-142.00597	632.36666	1366.59716	-186.36808	653.19556	1240.65657	76.10112	622.97566	1018.52088	65.32014	663.02050	1044.91607	120.52262	773.42481	959.62154	85.95237	855.01045	856.45875	58.41998	846.82717	841.43657	89.85303	541.67993	1256.94761	-399.92337	426.19993	1047.91795	-371.86027	466.90562	1061.52090	-437.80858	504.91061	949.71895	-422.41261	493.77350	790.89961	-426.62119	488.47559	795.65772	-460.87540	595.06912	870.54458	-39.80895	604.78604	868.24250	-246.03710	608.81754	871.77611	-44.50631	600.89619	874.03652	-210.35447	
